<?xml version="1.0" encoding="UTF-8" standalone="no"?>
<!-- Created with Inkscape (http://www.inkscape.org/) -->

<svg
   width="50"
   height="50"
   viewBox="0 0 13.229166 13.229167"
   version="1.1"
   id="svg5"
   xml:space="preserve"
   xmlns="http://www.w3.org/2000/svg"
   xmlns:svg="http://www.w3.org/2000/svg"><defs
     id="defs2" /><g
     id="layer1"><rect
       id="rect2108"
       x="2.6458354"
       y="3.7150204"
       width="11.641666"
       height="11.641666"
       style="fill:none;fill-rule:evenodd;stroke:none;stroke-width:0.264583" /><path
       d="M 11.495914,2.8295751 C 12.042032,2.484941 12.461081,1.9384736 12.657744,1.2874997 12.146415,1.6074027 11.581385,1.8387539 10.978536,1.9640025 10.497464,1.4215238 9.8098974,1.0832723 9.0489573,1.0832723 c -1.4598512,0 -2.6428589,1.2484989 -2.6428589,2.7881802 0,0.2185879 0.022033,0.4315898 0.06733,0.6350194 C 4.2768443,4.3899996 2.329108,3.2811085 1.024321,1.5930426 0.79663213,2.0062839 0.66654071,2.484941 0.66654071,2.9955097 c 0,0.9668881 0.46669849,1.8204946 1.17620319,2.3214894 C 1.4093302,5.3026425 1.0016286,5.1757959 0.6446091,4.9683763 v 0.034303 c 0,1.3514097 0.9107022,2.4786488 2.1217001,2.7339325 -0.2223776,0.065417 -0.4553523,0.098124 -0.6974025,0.098124 -0.1701926,0 -0.3365978,-0.016745 -0.4969519,-0.04946 0.3358417,1.1072943 1.3123528,1.9146305 2.4696442,1.9361699 -0.9054096,0.7483013 -2.045306,1.1934523 -3.28353051,1.1934523 -0.21330892,0 -0.42434513,-0.01196 -0.63083991,-0.03829 1.17015212,0.790583 2.55965972,1.252488 4.05279282,1.252488 4.863652,0 7.5216456,-4.2488844 7.5216456,-7.9337503 0,-0.1212594 -0.0013,-0.2417218 -0.0067,-0.3605886 0.516598,-0.3932976 0.9659,-0.8847194 1.319139,-1.4439509 -0.474257,0.2217793 -0.984071,0.3717571 -1.518093,0.4387695 z"
       id="path2112"
       fill="#000000"
       style="fill:#000000;fill-rule:evenodd;stroke:none;stroke-width:0.613656" /></g></svg>
